<mxfile host="app.diagrams.net" modified="2021-08-18T16:04:03.011Z" agent="5.0 (Windows NT 10.0; Win64; x64) AppleWebKit/537.36 (KHTML, like Gecko) Chrome/92.0.4515.159 Safari/537.36" etag="5p9qWkOCs1l3gEvZVlwu" version="14.9.7" type="github">
  <diagram id="C5RBs43oDa-KdzZeNtuy" name="Page-1">
    <mxGraphModel dx="3472" dy="2080" grid="1" gridSize="10" guides="1" tooltips="1" connect="1" arrows="1" fold="1" page="1" pageScale="1" pageWidth="827" pageHeight="1169" math="0" shadow="0">
      <root>
        <mxCell id="WIyWlLk6GJQsqaUBKTNV-0" />
        <mxCell id="WIyWlLk6GJQsqaUBKTNV-1" parent="WIyWlLk6GJQsqaUBKTNV-0" />
        <mxCell id="WIyWlLk6GJQsqaUBKTNV-2" value="" style="rounded=0;html=1;jettySize=auto;orthogonalLoop=1;fontSize=11;endArrow=block;endFill=0;endSize=8;strokeWidth=1;shadow=0;labelBackgroundColor=none;edgeStyle=orthogonalEdgeStyle;" parent="WIyWlLk6GJQsqaUBKTNV-1" edge="1">
          <mxGeometry relative="1" as="geometry">
            <mxPoint x="324" y="120" as="sourcePoint" />
            <mxPoint x="324" y="160" as="targetPoint" />
          </mxGeometry>
        </mxCell>
        <mxCell id="JRubvqle8F3zwX5u7JkT-5" style="edgeStyle=orthogonalEdgeStyle;rounded=0;orthogonalLoop=1;jettySize=auto;html=1;" edge="1" parent="WIyWlLk6GJQsqaUBKTNV-1" source="JRubvqle8F3zwX5u7JkT-4" target="JRubvqle8F3zwX5u7JkT-6">
          <mxGeometry relative="1" as="geometry">
            <mxPoint x="324" y="240" as="targetPoint" />
          </mxGeometry>
        </mxCell>
        <mxCell id="JRubvqle8F3zwX5u7JkT-4" value="Random Block" style="rounded=1;whiteSpace=wrap;html=1;" vertex="1" parent="WIyWlLk6GJQsqaUBKTNV-1">
          <mxGeometry x="264" y="160" width="120" height="40" as="geometry" />
        </mxCell>
        <mxCell id="JRubvqle8F3zwX5u7JkT-15" value="" style="edgeStyle=orthogonalEdgeStyle;rounded=0;orthogonalLoop=1;jettySize=auto;html=1;" edge="1" parent="WIyWlLk6GJQsqaUBKTNV-1" source="JRubvqle8F3zwX5u7JkT-6" target="JRubvqle8F3zwX5u7JkT-14">
          <mxGeometry relative="1" as="geometry" />
        </mxCell>
        <mxCell id="JRubvqle8F3zwX5u7JkT-6" value="Set Block, yBlock" style="rounded=1;whiteSpace=wrap;html=1;" vertex="1" parent="WIyWlLk6GJQsqaUBKTNV-1">
          <mxGeometry x="264" y="240" width="120" height="40" as="geometry" />
        </mxCell>
        <mxCell id="JRubvqle8F3zwX5u7JkT-8" value="Drop Block" style="rounded=1;whiteSpace=wrap;html=1;" vertex="1" parent="WIyWlLk6GJQsqaUBKTNV-1">
          <mxGeometry x="460" y="565" width="120" height="40" as="geometry" />
        </mxCell>
        <mxCell id="JRubvqle8F3zwX5u7JkT-23" value="" style="edgeStyle=orthogonalEdgeStyle;rounded=0;orthogonalLoop=1;jettySize=auto;html=1;" edge="1" parent="WIyWlLk6GJQsqaUBKTNV-1" source="JRubvqle8F3zwX5u7JkT-12" target="JRubvqle8F3zwX5u7JkT-22">
          <mxGeometry relative="1" as="geometry" />
        </mxCell>
        <mxCell id="JRubvqle8F3zwX5u7JkT-74" style="edgeStyle=orthogonalEdgeStyle;rounded=0;orthogonalLoop=1;jettySize=auto;html=1;entryX=0;entryY=0.5;entryDx=0;entryDy=0;" edge="1" parent="WIyWlLk6GJQsqaUBKTNV-1" source="JRubvqle8F3zwX5u7JkT-12" target="JRubvqle8F3zwX5u7JkT-8">
          <mxGeometry relative="1" as="geometry" />
        </mxCell>
        <mxCell id="JRubvqle8F3zwX5u7JkT-12" value="yBlock &amp;gt;= yDown*30" style="rhombus;whiteSpace=wrap;html=1;rounded=1;" vertex="1" parent="WIyWlLk6GJQsqaUBKTNV-1">
          <mxGeometry x="242.75" y="545" width="162.5" height="80" as="geometry" />
        </mxCell>
        <mxCell id="JRubvqle8F3zwX5u7JkT-65" style="edgeStyle=orthogonalEdgeStyle;rounded=0;orthogonalLoop=1;jettySize=auto;html=1;entryX=0.5;entryY=0;entryDx=0;entryDy=0;" edge="1" parent="WIyWlLk6GJQsqaUBKTNV-1" source="JRubvqle8F3zwX5u7JkT-14" target="JRubvqle8F3zwX5u7JkT-16">
          <mxGeometry relative="1" as="geometry" />
        </mxCell>
        <mxCell id="JRubvqle8F3zwX5u7JkT-14" value="Draw Down" style="whiteSpace=wrap;html=1;rounded=1;" vertex="1" parent="WIyWlLk6GJQsqaUBKTNV-1">
          <mxGeometry x="261" y="327.5" width="126" height="60" as="geometry" />
        </mxCell>
        <mxCell id="JRubvqle8F3zwX5u7JkT-73" style="edgeStyle=orthogonalEdgeStyle;rounded=0;orthogonalLoop=1;jettySize=auto;html=1;entryX=0.5;entryY=0;entryDx=0;entryDy=0;" edge="1" parent="WIyWlLk6GJQsqaUBKTNV-1" source="JRubvqle8F3zwX5u7JkT-16" target="JRubvqle8F3zwX5u7JkT-12">
          <mxGeometry relative="1" as="geometry" />
        </mxCell>
        <mxCell id="JRubvqle8F3zwX5u7JkT-16" value="Set yDown (1/30)" style="whiteSpace=wrap;html=1;rounded=1;" vertex="1" parent="WIyWlLk6GJQsqaUBKTNV-1">
          <mxGeometry x="264" y="435" width="120" height="40" as="geometry" />
        </mxCell>
        <mxCell id="JRubvqle8F3zwX5u7JkT-28" value="" style="edgeStyle=orthogonalEdgeStyle;rounded=0;orthogonalLoop=1;jettySize=auto;html=1;" edge="1" parent="WIyWlLk6GJQsqaUBKTNV-1" source="JRubvqle8F3zwX5u7JkT-22" target="JRubvqle8F3zwX5u7JkT-27">
          <mxGeometry relative="1" as="geometry" />
        </mxCell>
        <mxCell id="JRubvqle8F3zwX5u7JkT-84" style="edgeStyle=orthogonalEdgeStyle;rounded=0;orthogonalLoop=1;jettySize=auto;html=1;entryX=0;entryY=0.5;entryDx=0;entryDy=0;" edge="1" parent="WIyWlLk6GJQsqaUBKTNV-1" source="JRubvqle8F3zwX5u7JkT-22" target="JRubvqle8F3zwX5u7JkT-29">
          <mxGeometry relative="1" as="geometry" />
        </mxCell>
        <mxCell id="JRubvqle8F3zwX5u7JkT-22" value="Wait Block" style="whiteSpace=wrap;html=1;rounded=1;" vertex="1" parent="WIyWlLk6GJQsqaUBKTNV-1">
          <mxGeometry x="264" y="670" width="120" height="40" as="geometry" />
        </mxCell>
        <mxCell id="JRubvqle8F3zwX5u7JkT-24" value="YES" style="text;html=1;strokeColor=none;fillColor=none;align=center;verticalAlign=middle;whiteSpace=wrap;rounded=0;" vertex="1" parent="WIyWlLk6GJQsqaUBKTNV-1">
          <mxGeometry x="280" y="640" width="40" height="20" as="geometry" />
        </mxCell>
        <mxCell id="JRubvqle8F3zwX5u7JkT-26" value="New Turn" style="shape=parallelogram;perimeter=parallelogramPerimeter;whiteSpace=wrap;html=1;fixedSize=1;" vertex="1" parent="WIyWlLk6GJQsqaUBKTNV-1">
          <mxGeometry x="264" y="70" width="136" height="50" as="geometry" />
        </mxCell>
        <mxCell id="JRubvqle8F3zwX5u7JkT-27" value="wait 3000ms" style="rhombus;whiteSpace=wrap;html=1;rounded=1;" vertex="1" parent="WIyWlLk6GJQsqaUBKTNV-1">
          <mxGeometry x="272" y="760" width="104" height="80" as="geometry" />
        </mxCell>
        <mxCell id="JRubvqle8F3zwX5u7JkT-29" value="SKIP" style="rhombus;whiteSpace=wrap;html=1;rounded=1;" vertex="1" parent="WIyWlLk6GJQsqaUBKTNV-1">
          <mxGeometry x="603" y="740" width="104" height="80" as="geometry" />
        </mxCell>
        <mxCell id="JRubvqle8F3zwX5u7JkT-34" value="" style="edgeStyle=orthogonalEdgeStyle;rounded=0;orthogonalLoop=1;jettySize=auto;html=1;" edge="1" parent="WIyWlLk6GJQsqaUBKTNV-1" source="JRubvqle8F3zwX5u7JkT-31" target="JRubvqle8F3zwX5u7JkT-33">
          <mxGeometry relative="1" as="geometry" />
        </mxCell>
        <mxCell id="JRubvqle8F3zwX5u7JkT-36" value="" style="edgeStyle=orthogonalEdgeStyle;rounded=0;orthogonalLoop=1;jettySize=auto;html=1;" edge="1" parent="WIyWlLk6GJQsqaUBKTNV-1" source="JRubvqle8F3zwX5u7JkT-31" target="JRubvqle8F3zwX5u7JkT-35">
          <mxGeometry relative="1" as="geometry" />
        </mxCell>
        <mxCell id="JRubvqle8F3zwX5u7JkT-38" value="" style="edgeStyle=orthogonalEdgeStyle;rounded=0;orthogonalLoop=1;jettySize=auto;html=1;" edge="1" parent="WIyWlLk6GJQsqaUBKTNV-1" source="JRubvqle8F3zwX5u7JkT-31" target="JRubvqle8F3zwX5u7JkT-37">
          <mxGeometry relative="1" as="geometry" />
        </mxCell>
        <mxCell id="JRubvqle8F3zwX5u7JkT-31" value="SKIP" style="rhombus;whiteSpace=wrap;html=1;rounded=1;" vertex="1" parent="WIyWlLk6GJQsqaUBKTNV-1">
          <mxGeometry x="748.25" y="70" width="94" height="80" as="geometry" />
        </mxCell>
        <mxCell id="JRubvqle8F3zwX5u7JkT-85" style="edgeStyle=orthogonalEdgeStyle;rounded=0;orthogonalLoop=1;jettySize=auto;html=1;entryX=0.5;entryY=0;entryDx=0;entryDy=0;" edge="1" parent="WIyWlLk6GJQsqaUBKTNV-1" source="JRubvqle8F3zwX5u7JkT-33" target="JRubvqle8F3zwX5u7JkT-8">
          <mxGeometry relative="1" as="geometry">
            <Array as="points" />
          </mxGeometry>
        </mxCell>
        <mxCell id="JRubvqle8F3zwX5u7JkT-33" value="Clicked Skip This Turn" style="rounded=1;whiteSpace=wrap;html=1;" vertex="1" parent="WIyWlLk6GJQsqaUBKTNV-1">
          <mxGeometry x="466.5" y="175" width="107" height="50" as="geometry" />
        </mxCell>
        <mxCell id="JRubvqle8F3zwX5u7JkT-50" value="" style="edgeStyle=orthogonalEdgeStyle;rounded=0;orthogonalLoop=1;jettySize=auto;html=1;" edge="1" parent="WIyWlLk6GJQsqaUBKTNV-1" source="JRubvqle8F3zwX5u7JkT-35" target="JRubvqle8F3zwX5u7JkT-49">
          <mxGeometry relative="1" as="geometry" />
        </mxCell>
        <mxCell id="JRubvqle8F3zwX5u7JkT-35" value="Just Skip At This Turn" style="rounded=1;whiteSpace=wrap;html=1;" vertex="1" parent="WIyWlLk6GJQsqaUBKTNV-1">
          <mxGeometry x="890" y="170" width="110" height="60" as="geometry" />
        </mxCell>
        <mxCell id="JRubvqle8F3zwX5u7JkT-40" value="" style="edgeStyle=orthogonalEdgeStyle;rounded=0;orthogonalLoop=1;jettySize=auto;html=1;" edge="1" parent="WIyWlLk6GJQsqaUBKTNV-1" source="JRubvqle8F3zwX5u7JkT-37" target="JRubvqle8F3zwX5u7JkT-39">
          <mxGeometry relative="1" as="geometry" />
        </mxCell>
        <mxCell id="JRubvqle8F3zwX5u7JkT-37" value="Skip for the First time" style="whiteSpace=wrap;html=1;rounded=1;" vertex="1" parent="WIyWlLk6GJQsqaUBKTNV-1">
          <mxGeometry x="738.5" y="270" width="113" height="50" as="geometry" />
        </mxCell>
        <mxCell id="JRubvqle8F3zwX5u7JkT-87" style="edgeStyle=orthogonalEdgeStyle;rounded=0;orthogonalLoop=1;jettySize=auto;html=1;entryX=0.5;entryY=0;entryDx=0;entryDy=0;" edge="1" parent="WIyWlLk6GJQsqaUBKTNV-1" source="JRubvqle8F3zwX5u7JkT-39" target="JRubvqle8F3zwX5u7JkT-44">
          <mxGeometry relative="1" as="geometry" />
        </mxCell>
        <mxCell id="JRubvqle8F3zwX5u7JkT-39" value="set Skip = Block" style="whiteSpace=wrap;html=1;rounded=1;" vertex="1" parent="WIyWlLk6GJQsqaUBKTNV-1">
          <mxGeometry x="573.5" y="290" width="130" height="42.5" as="geometry" />
        </mxCell>
        <mxCell id="JRubvqle8F3zwX5u7JkT-44" value="set Block = Next Block" style="whiteSpace=wrap;html=1;rounded=1;" vertex="1" parent="WIyWlLk6GJQsqaUBKTNV-1">
          <mxGeometry x="738.5" y="475" width="113.5" height="70" as="geometry" />
        </mxCell>
        <mxCell id="JRubvqle8F3zwX5u7JkT-79" style="edgeStyle=orthogonalEdgeStyle;rounded=0;orthogonalLoop=1;jettySize=auto;html=1;entryX=0;entryY=0.5;entryDx=0;entryDy=0;" edge="1" parent="WIyWlLk6GJQsqaUBKTNV-1" source="JRubvqle8F3zwX5u7JkT-49" target="JRubvqle8F3zwX5u7JkT-14">
          <mxGeometry relative="1" as="geometry">
            <Array as="points">
              <mxPoint x="1133" y="10" />
              <mxPoint x="120" y="10" />
              <mxPoint x="120" y="357" />
            </Array>
          </mxGeometry>
        </mxCell>
        <mxCell id="JRubvqle8F3zwX5u7JkT-49" value="Swap Skip vs. Block" style="rounded=1;whiteSpace=wrap;html=1;" vertex="1" parent="WIyWlLk6GJQsqaUBKTNV-1">
          <mxGeometry x="1080" y="170" width="110" height="60" as="geometry" />
        </mxCell>
        <mxCell id="JRubvqle8F3zwX5u7JkT-75" value="No&lt;br&gt;" style="text;html=1;strokeColor=none;fillColor=none;align=center;verticalAlign=middle;whiteSpace=wrap;rounded=0;" vertex="1" parent="WIyWlLk6GJQsqaUBKTNV-1">
          <mxGeometry x="405.25" y="555" width="46" height="30" as="geometry" />
        </mxCell>
        <mxCell id="JRubvqle8F3zwX5u7JkT-80" value="YES" style="text;html=1;strokeColor=none;fillColor=none;align=center;verticalAlign=middle;whiteSpace=wrap;rounded=0;" vertex="1" parent="WIyWlLk6GJQsqaUBKTNV-1">
          <mxGeometry x="376" y="860" width="40" height="20" as="geometry" />
        </mxCell>
        <mxCell id="JRubvqle8F3zwX5u7JkT-96" value="" style="shape=flexArrow;endArrow=classic;html=1;exitX=0;exitY=0.5;exitDx=0;exitDy=0;entryX=1;entryY=0.5;entryDx=0;entryDy=0;" edge="1" parent="WIyWlLk6GJQsqaUBKTNV-1" source="JRubvqle8F3zwX5u7JkT-44" target="JRubvqle8F3zwX5u7JkT-14">
          <mxGeometry width="50" height="50" relative="1" as="geometry">
            <mxPoint x="810" y="430" as="sourcePoint" />
            <mxPoint x="860" y="380" as="targetPoint" />
          </mxGeometry>
        </mxCell>
      </root>
    </mxGraphModel>
  </diagram>
</mxfile>
